# xmcd
#
# Track frame offsets: 
#        150
#        19035
#        36302
#        48690
#        60957
#        80650
#        94785
#        110827
#        138362
#        148637
#        171030
#
# Disc length: 2464 seconds
#
# Revision: 0
# Processed by: cddbd v1.5.1PL2 Copyright (c) Steve Scherf et al.
# Submitted via: ExactAudioCopy v0.95a5
#
DISCID=96099e0b
DTITLE=Two Aces And A Jack  - Hot As You Got
DYEAR=1987
DGENRE=Blues
TTITLE0=I Love The Woman
TTITLE1=The Thrill Is Gone
TTITLE2=Down in Virginia
TTITLE3=A.D.C. Blues
TTITLE4=Daddy Daddy
TTITLE5=Got my Mojo Working
TTITLE6=That's All Right
TTITLE7=It's Only Nine O'Clock
TTITLE8=Little Dog
TTITLE9=Mean And Evil
TTITLE10=She Might Be A Millionaire
EXTD=
EXTT0=
EXTT1=
EXTT2=
EXTT3=
EXTT4=
EXTT5=
EXTT6=
EXTT7=
EXTT8=
EXTT9=
EXTT10=
PLAYORDER=
